<svg width="280" height="164" viewBox="0 0 280 164" fill="none" xmlns="http://www.w3.org/2000/svg">
<g filter="url(#filter0_d_486_6150)">
<g filter="url(#filter1_d_486_6150)">
<rect x="8" y="6" width="264" height="148" rx="8" fill="#252F3D"/>
</g>
<mask id="mask0_486_6150" style="mask-type:alpha" maskUnits="userSpaceOnUse" x="8" y="6" width="264" height="148">
<rect x="8" y="6" width="264" height="148" rx="8" fill="#252F3D"/>
</mask>
<g mask="url(#mask0_486_6150)">
<path d="M-412.305 110.479C-376.734 96.6655 -340.335 93.9531 -303.109 102.342C-265.884 110.731 -229.485 108.019 -193.914 94.2048C-158.342 80.391 -121.944 77.6785 -84.7176 86.0675C-47.4917 94.4565 -11.0931 91.7441 24.4783 77.9302C60.0496 64.1164 96.4483 61.404 133.674 69.7929C170.9 78.1819 207.299 75.4695 242.87 61.6557C278.441 47.8418 314.84 45.1294 352.066 53.5184C389.292 61.9073 425.691 59.1949 461.262 45.3811C496.833 31.5672 533.232 28.8548 570.458 37.2438C607.684 45.6328 644.082 42.9203 679.654 29.1065C715.225 15.2927 751.624 12.5802 788.85 20.9692C826.076 29.3582 862.474 26.6458 898.046 12.8319C933.617 -0.981907 970.016 -3.69434 1007.24 4.69464C1044.47 13.0836 1080.87 10.3712 1116.44 -3.44264C1152.01 -17.2565 1188.41 -19.9689 1225.63 -11.5799C1262.86 -3.19095 1299.26 -5.90338 1334.83 -19.7172C1370.4 -33.5311 1406.8 -36.2435 1444.03 -27.8545C1481.25 -19.4655 1517.65 -22.178 1553.22 -35.9918C1588.79 -49.8056 1625.19 -52.5181 1662.42 -44.1291C1699.64 -35.7401 1736.04 -38.4525 1771.61 -52.2664" stroke="#F2F7FF" stroke-opacity="0.1"/>
<path d="M-411.59 120.086C-376.018 106.272 -339.62 103.56 -302.394 111.949C-265.168 120.338 -228.769 117.626 -193.198 103.812C-157.626 89.9979 -121.228 87.2855 -84.0018 95.6744C-46.7759 104.063 -10.3772 101.351 25.1941 87.5372C60.7655 73.7233 97.1641 71.0109 134.39 79.3999C171.616 87.7889 208.015 85.0764 243.586 71.2626C279.157 57.4487 315.556 54.7363 352.782 63.1253C390.008 71.5143 426.406 68.8019 461.978 54.988C497.549 41.1742 533.948 38.4617 571.174 46.8507C608.4 55.2397 644.798 52.5273 680.37 38.7134C715.941 24.8996 752.34 22.1872 789.565 30.5762C826.791 38.9651 863.19 36.2527 898.761 22.4389C934.333 8.62503 970.731 5.9126 1007.96 14.3016C1045.18 22.6906 1081.58 19.9781 1117.15 6.16429C1152.72 -7.64955 1189.12 -10.362 1226.35 -1.973C1263.57 6.41598 1299.97 3.70355 1335.54 -10.1103C1371.12 -23.9241 1407.51 -26.6366 1444.74 -18.2476C1481.97 -9.85859 1518.37 -12.571 1553.94 -26.3849C1589.51 -40.1987 1625.91 -42.9111 1663.13 -34.5221C1700.36 -26.1332 1736.76 -28.8456 1772.33 -42.6594" stroke="#F2F7FF" stroke-opacity="0.1"/>
<path d="M-410.874 129.693C-375.302 115.879 -338.904 113.166 -301.678 121.555C-264.452 129.944 -228.053 127.232 -192.482 113.418C-156.911 99.6043 -120.512 96.8919 -83.286 105.281C-46.0601 113.67 -9.66147 110.957 25.9099 97.1436C61.4812 83.3298 97.8799 80.6173 135.106 89.0063C172.332 97.3953 208.73 94.6829 244.302 80.869C279.873 67.0552 316.272 64.3428 353.498 72.7318C390.723 81.1207 427.122 78.4083 462.693 64.5945C498.265 50.7806 534.663 48.0682 571.889 56.4572C609.115 64.8462 645.514 62.1337 681.085 48.3199C716.657 34.5061 753.055 31.7936 790.281 40.1826C827.507 48.5716 863.906 45.8592 899.477 32.0453C935.048 18.2315 971.447 15.5191 1008.67 23.908C1045.9 32.297 1082.3 29.5846 1117.87 15.7707C1153.44 1.95691 1189.84 -0.755518 1227.06 7.63346C1264.29 16.0224 1300.69 13.31 1336.26 -0.503824C1371.83 -14.3177 1408.23 -17.0301 1445.46 -8.64111C1482.68 -0.25213 1519.08 -2.96456 1554.65 -16.7784C1590.22 -30.5922 1626.62 -33.3047 1663.85 -24.9157C1701.07 -16.5267 1737.47 -19.2391 1773.04 -33.053" stroke="#F2F7FF" stroke-opacity="0.1"/>
<path d="M-410.158 139.3C-374.587 125.486 -338.188 122.773 -300.962 131.162C-263.736 139.551 -227.337 136.839 -191.766 123.025C-156.195 109.211 -119.796 106.499 -82.5702 114.888C-45.3442 123.277 -8.94561 120.564 26.6257 106.751C62.1971 92.9367 98.5957 90.2243 135.822 98.6133C173.048 107.002 209.446 104.29 245.018 90.476C280.589 76.6621 316.988 73.9497 354.213 82.3387C391.439 90.7277 427.838 88.0152 463.409 74.2014C498.981 60.3876 535.379 57.6751 572.605 66.0641C609.831 74.4531 646.23 71.7407 681.801 57.9268C717.373 44.113 753.771 41.4006 790.997 49.7895C828.223 58.1785 864.622 55.4661 900.193 41.6522C935.764 27.8384 972.163 25.126 1009.39 33.515C1046.61 41.9039 1083.01 39.1915 1118.58 25.3777C1154.16 11.5638 1190.55 8.8514 1227.78 17.2404C1265.01 25.6294 1301.41 22.9169 1336.98 9.1031C1372.55 -4.71074 1408.95 -7.42317 1446.17 0.965808C1483.4 9.35479 1519.8 6.64236 1555.37 -7.17148C1590.94 -20.9853 1627.34 -23.6977 1664.56 -15.3088C1701.79 -6.91979 1738.19 -9.63221 1773.76 -23.4461" stroke="#F2F7FF" stroke-opacity="0.1"/>
<path d="M-409.442 148.907C-373.871 135.093 -337.472 132.38 -300.246 140.769C-263.02 149.158 -226.622 146.446 -191.05 132.632C-155.479 118.818 -119.08 116.106 -81.8543 124.495C-44.6284 132.884 -8.22979 130.171 27.3416 116.357C62.9129 102.544 99.3116 99.8312 136.537 108.22C173.763 116.609 210.162 113.897 245.733 100.083C281.305 86.2691 317.703 83.5566 354.929 91.9456C392.155 100.335 428.554 97.6222 464.125 83.8083C499.697 69.9945 536.095 67.2821 573.321 75.671C610.547 84.06 646.946 81.3476 682.517 67.5338C718.088 53.7199 754.487 51.0075 791.713 59.3965C828.939 67.7854 865.337 65.073 900.909 51.2592C936.48 37.4453 972.879 34.7329 1010.1 43.1219C1047.33 51.5109 1083.73 48.7984 1119.3 34.9846C1154.87 21.1708 1191.27 18.4583 1228.5 26.8473C1265.72 35.2363 1302.12 32.5239 1337.69 18.71C1373.26 4.89619 1409.66 2.18376 1446.89 10.5727C1484.11 18.9617 1520.51 16.2493 1556.08 2.43545C1591.66 -11.3784 1628.05 -14.0908 1665.28 -5.70183C1702.51 2.68715 1738.9 -0.0252812 1774.48 -13.8391" stroke="#F2F7FF" stroke-opacity="0.1"/>
<path d="M-408.726 158.513C-373.155 144.699 -336.756 141.987 -299.53 150.376C-262.304 158.765 -225.906 156.052 -190.334 142.238C-154.763 128.425 -118.364 125.712 -81.1385 134.101C-43.9126 142.49 -7.51397 139.778 28.0574 125.964C63.6287 112.15 100.027 109.438 137.253 117.827C174.479 126.216 210.878 123.503 246.449 109.689C282.021 95.8755 318.419 93.1631 355.645 101.552C392.871 109.941 429.27 107.229 464.841 93.4148C500.412 79.6009 536.811 76.8885 574.037 85.2775C611.263 93.6665 647.661 90.954 683.233 77.1402C718.804 63.3264 755.203 60.6139 792.429 69.0029C829.655 77.3919 866.053 74.6795 901.625 60.8656C937.196 47.0518 973.595 44.3394 1010.82 52.7283C1048.05 61.1173 1084.45 58.4049 1120.02 44.591C1155.59 30.7772 1191.99 28.0648 1229.21 36.4538C1266.44 44.8427 1302.84 42.1303 1338.41 28.3165C1373.98 14.5026 1410.38 11.7902 1447.6 20.1792C1484.83 28.5682 1521.23 25.8557 1556.8 12.0419C1592.37 -1.77194 1628.77 -4.48437 1666 3.90461C1703.22 12.2936 1739.62 9.58116 1775.19 -4.23267" stroke="#F2F7FF" stroke-opacity="0.1"/>
<path d="M-408.01 168.12C-372.439 154.306 -336.04 151.594 -298.814 159.983C-261.589 168.372 -225.19 165.659 -189.619 151.845C-154.047 138.032 -117.649 135.319 -80.4227 143.708C-43.1968 152.097 -6.79814 149.385 28.7732 135.571C64.3446 121.757 100.743 119.045 137.969 127.434C175.195 135.823 211.594 133.11 247.165 119.296C282.736 105.482 319.135 102.77 356.361 111.159C393.587 119.548 429.985 116.836 465.557 103.022C501.128 89.2079 537.527 86.4954 574.753 94.8844C611.979 103.273 648.377 100.561 683.949 86.7471C719.52 72.9333 755.919 70.2209 793.145 78.6098C830.37 86.9988 866.769 84.2864 902.34 70.4726C937.912 56.6587 974.31 53.9463 1011.54 62.3353C1048.76 70.7242 1085.16 68.0118 1120.73 54.198C1156.3 40.3841 1192.7 37.6717 1229.93 46.0607C1267.15 54.4497 1303.55 51.7372 1339.12 37.9234C1374.7 24.1096 1411.09 21.3971 1448.32 29.7861C1485.55 38.1751 1521.94 35.4627 1557.52 21.6488C1593.09 7.835 1629.49 5.12257 1666.71 13.5115C1703.94 21.9005 1740.34 19.1881 1775.91 5.37426" stroke="#F2F7FF" stroke-opacity="0.1"/>
<path d="M-407.294 177.727C-371.722 163.913 -335.324 161.201 -298.098 169.59C-260.872 177.979 -224.473 175.266 -188.902 161.452C-153.33 147.639 -116.932 144.926 -79.7059 153.315C-42.48 161.704 -6.08135 158.992 29.49 145.178C65.0614 131.364 101.46 128.652 138.686 137.04C175.912 145.429 212.31 142.717 247.882 128.903C283.453 115.089 319.852 112.377 357.078 120.766C394.304 129.155 430.702 126.442 466.274 112.629C501.845 98.8148 538.244 96.1024 575.47 104.491C612.695 112.88 649.094 110.168 684.665 96.3541C720.237 82.5402 756.635 79.8278 793.861 88.2168C831.087 96.6058 867.486 93.8933 903.057 80.0795C938.629 66.2657 975.027 63.5532 1012.25 71.9422C1049.48 80.3312 1085.88 77.6188 1121.45 63.8049C1157.02 49.9911 1193.42 47.2786 1230.64 55.6676C1267.87 64.0566 1304.27 61.3442 1339.84 47.5303C1375.41 33.7165 1411.81 31.0041 1449.04 39.3931C1486.26 47.782 1522.66 45.0696 1558.23 31.2558C1593.8 17.4419 1630.2 14.7295 1667.43 23.1185C1704.65 31.5075 1741.05 28.795 1776.62 14.9812" stroke="#F2F7FF" stroke-opacity="0.1" stroke-width="2"/>
<path d="M-406.578 187.333C-371.006 173.52 -334.608 170.807 -297.382 179.196C-260.156 187.585 -223.757 184.873 -188.186 171.059C-152.615 157.245 -116.216 154.533 -78.9901 162.922C-41.7642 171.31 -5.36553 168.598 30.2058 154.784C65.7772 140.97 102.176 138.258 139.402 146.647C176.628 155.036 213.026 152.323 248.598 138.51C284.169 124.696 320.568 121.983 357.794 130.372C395.019 138.761 431.418 136.049 466.989 122.235C502.561 108.421 538.959 105.709 576.185 114.098C613.411 122.487 649.81 119.774 685.381 105.961C720.953 92.1467 757.351 89.4342 794.577 97.8232C831.803 106.212 868.202 103.5 903.773 89.6859C939.344 75.8721 975.743 73.1597 1012.97 81.5486C1050.19 89.9376 1086.59 87.2252 1122.16 73.4114C1157.74 59.5975 1194.13 56.8851 1231.36 65.2741C1268.59 73.6631 1304.99 70.9506 1340.56 57.1368C1376.13 43.3229 1412.53 40.6105 1449.75 48.9995C1486.98 57.3885 1523.38 54.6761 1558.95 40.8622C1594.52 27.0484 1630.92 24.3359 1668.14 32.7249C1705.37 41.1139 1741.77 38.4015 1777.34 24.5876" stroke="#F2F7FF" stroke-opacity="0.1" stroke-width="2"/>
<path d="M-405.862 196.94C-370.291 183.126 -333.892 180.414 -296.666 188.803C-259.44 197.192 -223.042 194.48 -187.47 180.666C-151.899 166.852 -115.5 164.139 -78.2743 172.528C-41.0483 180.917 -4.64971 178.205 30.9216 164.391C66.493 150.577 102.892 147.865 140.118 156.254C177.343 164.643 213.742 161.93 249.313 148.117C284.885 134.303 321.283 131.59 358.509 139.979C395.735 148.368 432.134 145.656 467.705 131.842C503.277 118.028 539.675 115.316 576.901 123.705C614.127 132.094 650.526 129.381 686.097 115.567C721.668 101.754 758.067 99.0412 795.293 107.43C832.519 115.819 868.918 113.107 904.489 99.2929C940.06 85.479 976.459 82.7666 1013.68 91.1556C1050.91 99.5446 1087.31 96.8321 1122.88 83.0183C1158.45 69.2045 1194.85 66.492 1232.08 74.881C1269.3 83.27 1305.7 80.5576 1341.27 66.7437C1376.84 52.9299 1413.24 50.2175 1450.47 58.6064C1487.69 66.9954 1524.09 64.283 1559.66 50.4691C1595.24 36.6553 1631.63 33.9429 1668.86 42.3319C1706.09 50.7208 1742.48 48.0084 1778.06 34.1946" stroke="#F2F7FF" stroke-opacity="0.1" stroke-width="2"/>
<path d="M-405.146 206.547C-369.575 192.733 -333.176 190.021 -295.95 198.41C-258.724 206.799 -222.326 204.087 -186.754 190.273C-151.183 176.459 -114.784 173.746 -77.5585 182.135C-40.3326 190.524 -3.93393 187.812 31.6374 173.998C67.2088 160.184 103.607 157.472 140.833 165.861C178.059 174.25 214.458 171.537 250.029 157.724C285.601 143.91 321.999 141.197 359.225 149.586C396.451 157.975 432.85 155.263 468.421 141.449C503.992 127.635 540.391 124.923 577.617 133.312C614.843 141.701 651.241 138.988 686.813 125.174C722.384 111.361 758.783 108.648 796.009 117.037C833.235 125.426 869.633 122.714 905.205 108.9C940.776 95.086 977.175 92.3735 1014.4 100.763C1051.63 109.152 1088.02 106.439 1123.6 92.6252C1159.17 78.8114 1195.57 76.099 1232.79 84.488C1270.02 92.8769 1306.42 90.1645 1341.99 76.3507C1377.56 62.5368 1413.96 59.8244 1451.18 68.2134C1488.41 76.6024 1524.81 73.8899 1560.38 60.0761C1595.95 46.2623 1632.35 43.5498 1669.58 51.9388C1706.8 60.3278 1743.2 57.6154 1778.77 43.8015" stroke="#F2F7FF" stroke-opacity="0.1" stroke-width="2"/>
<path d="M-404.43 216.154C-368.859 202.34 -332.46 199.627 -295.234 208.016C-258.009 216.405 -221.61 213.693 -186.039 199.879C-150.467 186.065 -114.069 183.353 -76.8426 191.742C-39.6167 200.131 -3.21807 197.418 32.3533 183.605C67.9246 169.791 104.323 167.078 141.549 175.467C178.775 183.856 215.174 181.144 250.745 167.33C286.316 153.516 322.715 150.804 359.941 159.193C397.167 167.582 433.566 164.869 469.137 151.055C504.708 137.242 541.107 134.529 578.333 142.918C615.559 151.307 651.957 148.595 687.529 134.781C723.1 120.967 759.499 118.255 796.725 126.644C833.951 135.033 870.349 132.32 905.921 118.506C941.492 104.692 977.891 101.98 1015.12 110.369C1052.34 118.758 1088.74 116.046 1124.31 102.232C1159.88 88.4178 1196.28 85.7054 1233.51 94.0944C1270.73 102.483 1307.13 99.7709 1342.7 85.9571C1378.28 72.1433 1414.67 69.4308 1451.9 77.8198C1489.13 86.2088 1525.52 83.4964 1561.1 69.6825C1596.67 55.8687 1633.07 53.1563 1670.29 61.5452C1707.52 69.9342 1743.92 67.2218 1779.49 53.408" stroke="#F2F7FF" stroke-opacity="0.1" stroke-width="2"/>
<path d="M-403.715 225.761C-368.143 211.947 -331.745 209.234 -294.519 217.623C-257.293 226.012 -220.894 223.3 -185.323 209.486C-149.751 195.672 -113.353 192.96 -76.1268 201.349C-38.9009 209.738 -2.50225 207.025 33.0691 193.211C68.6405 179.398 105.039 176.685 142.265 185.074C179.491 193.463 215.89 190.751 251.461 176.937C287.032 163.123 323.431 160.411 360.657 168.8C397.883 177.189 434.281 174.476 469.853 160.662C505.424 146.848 541.823 144.136 579.049 152.525C616.275 160.914 652.673 158.202 688.245 144.388C723.816 130.574 760.215 127.861 797.44 136.25C834.666 144.639 871.065 141.927 906.636 128.113C942.208 114.299 978.606 111.587 1015.83 119.976C1053.06 128.365 1089.46 125.652 1125.03 111.839C1160.6 98.0248 1197 95.3123 1234.22 103.701C1271.45 112.09 1307.85 109.378 1343.42 95.564C1378.99 81.7502 1415.39 79.0378 1452.62 87.4267C1489.84 95.8157 1526.24 93.1033 1561.81 79.2895C1597.38 65.4756 1633.78 62.7632 1671.01 71.1522C1708.23 79.5412 1744.63 76.8287 1780.2 63.0149" stroke="#F2F7FF" stroke-opacity="0.1" stroke-width="2"/>
<path d="M-402.999 235.368C-367.427 221.554 -331.029 218.841 -293.803 227.23C-256.577 235.619 -220.178 232.907 -184.607 219.093C-149.036 205.279 -112.637 202.567 -75.411 210.956C-38.1851 219.345 -1.78647 216.632 33.7849 202.818C69.3562 189.005 105.755 186.292 142.981 194.681C180.207 203.07 216.605 200.358 252.177 186.544C287.748 172.73 324.147 170.018 361.373 178.407C398.598 186.796 434.997 184.083 470.568 170.269C506.14 156.455 542.538 153.743 579.764 162.132C616.99 170.521 653.389 167.809 688.96 153.995C724.532 140.181 760.93 137.468 798.156 145.857C835.382 154.246 871.781 151.534 907.352 137.72C942.923 123.906 979.322 121.194 1016.55 129.583C1053.77 137.972 1090.17 135.259 1125.74 121.446C1161.32 107.632 1197.71 104.919 1234.94 113.308C1272.17 121.697 1308.56 118.985 1344.14 105.171C1379.71 91.3571 1416.11 88.6447 1453.33 97.0337C1490.56 105.423 1526.96 102.71 1562.53 88.8964C1598.1 75.0826 1634.5 72.3701 1671.72 80.7591C1708.95 89.1481 1745.35 86.4357 1780.92 72.6218" stroke="#F2F7FF" stroke-opacity="0.1" stroke-width="2"/>
<path d="M-402.283 244.974C-366.712 231.161 -330.313 228.448 -293.087 236.837C-255.861 245.226 -219.462 242.514 -183.891 228.7C-148.32 214.886 -111.921 212.174 -74.6952 220.563C-37.4692 228.952 -1.07061 226.239 34.5007 212.425C70.0721 198.612 106.471 195.899 143.697 204.288C180.923 212.677 217.321 209.965 252.893 196.151C288.464 182.337 324.863 179.625 362.088 188.013C399.314 196.402 435.713 193.69 471.284 179.876C506.856 166.062 543.254 163.35 580.48 171.739C617.706 180.128 654.105 177.415 689.676 163.602C725.248 149.788 761.646 147.075 798.872 155.464C836.098 163.853 872.497 161.141 908.068 147.327C943.639 133.513 980.038 130.801 1017.26 139.19C1054.49 147.579 1090.89 144.866 1126.46 131.052C1162.03 117.239 1198.43 114.526 1235.66 122.915C1272.88 131.304 1309.28 128.592 1344.85 114.778C1380.42 100.964 1416.82 98.2516 1454.05 106.641C1491.27 115.03 1527.67 112.317 1563.24 98.5033C1598.81 84.6895 1635.21 81.9771 1672.44 90.366C1709.67 98.755 1746.06 96.0426 1781.64 82.2288" stroke="#F2F7FF" stroke-opacity="0.1" stroke-width="2"/>
<path d="M-401.567 254.581C-365.996 240.767 -329.597 238.055 -292.371 246.444C-255.145 254.833 -218.747 252.12 -183.175 238.306C-147.604 224.493 -111.205 221.78 -73.9793 230.169C-36.7534 238.558 -0.354786 235.846 35.2166 222.032C70.7879 208.218 107.187 205.506 144.412 213.895C181.638 222.283 218.037 219.571 253.608 205.757C289.18 191.943 325.578 189.231 362.804 197.62C400.03 206.009 436.429 203.296 472 189.483C507.572 175.669 543.97 172.956 581.196 181.345C618.422 189.734 654.821 187.022 690.392 173.208C725.963 159.394 762.362 156.682 799.588 165.071C836.814 173.46 873.212 170.747 908.784 156.933C944.355 143.12 980.754 140.407 1017.98 148.796C1055.21 157.185 1091.6 154.473 1127.18 140.659C1162.75 126.845 1199.15 124.133 1236.37 132.522C1273.6 140.911 1310 138.198 1345.57 124.384C1381.14 110.571 1417.54 107.858 1454.76 116.247C1491.99 124.636 1528.39 121.924 1563.96 108.11C1599.53 94.2959 1635.93 91.5835 1673.16 99.9725C1710.38 108.361 1746.78 105.649 1782.35 91.8352" stroke="#F2F7FF" stroke-opacity="0.1" stroke-width="2"/>
<path d="M-400.851 264.188C-365.28 250.374 -328.881 247.662 -291.655 256.051C-254.429 264.44 -218.031 261.727 -182.459 247.913C-146.888 234.099 -110.489 231.387 -73.2635 239.776C-36.0376 248.165 0.360991 245.453 35.9323 231.639C71.5037 217.825 107.902 215.112 145.128 223.501C182.354 231.89 218.753 229.178 254.324 215.364C289.895 201.55 326.294 198.838 363.52 207.227C400.746 215.616 437.145 212.903 472.716 199.09C508.287 185.276 544.686 182.563 581.912 190.952C619.138 199.341 655.536 196.629 691.108 182.815C726.679 169.001 763.078 166.289 800.304 174.678C837.529 183.067 873.928 180.354 909.499 166.54C945.071 152.727 981.469 150.014 1018.7 158.403C1055.92 166.792 1092.32 164.08 1127.89 150.266C1163.46 136.452 1199.86 133.74 1237.09 142.129C1274.31 150.518 1310.71 147.805 1346.28 133.991C1381.85 120.177 1418.25 117.465 1455.48 125.854C1492.7 134.243 1529.1 131.531 1564.67 117.717C1600.25 103.903 1636.64 101.19 1673.87 109.579C1711.1 117.968 1747.5 115.256 1783.07 101.442" stroke="#F2F7FF" stroke-opacity="0.1" stroke-width="2"/>
<path d="M-400.135 273.795C-364.564 259.981 -328.165 257.269 -290.939 265.658C-253.714 274.046 -217.315 271.334 -181.744 257.52C-146.172 243.706 -109.774 240.994 -72.5477 249.383C-35.3218 257.772 1.07686 255.059 36.6482 241.246C72.2196 227.432 108.618 224.719 145.844 233.108C183.07 241.497 219.469 238.785 255.04 224.971C290.611 211.157 327.01 208.445 364.236 216.834C401.462 225.223 437.86 222.51 473.432 208.697C509.003 194.883 545.402 192.17 582.628 200.559C619.854 208.948 656.252 206.236 691.824 192.422C727.395 178.608 763.794 175.896 801.02 184.285C838.245 192.674 874.644 189.961 910.215 176.147C945.787 162.334 982.185 159.621 1019.41 168.01C1056.64 176.399 1093.04 173.687 1128.61 159.873C1164.18 146.059 1200.58 143.347 1237.8 151.735C1275.03 160.124 1311.43 157.412 1347 143.598C1382.57 129.784 1418.97 127.072 1456.19 135.461C1493.42 143.85 1529.82 141.137 1565.39 127.324C1600.96 113.51 1637.36 110.797 1674.59 119.186C1711.81 127.575 1748.21 124.863 1783.78 111.049" stroke="#F2F7FF" stroke-opacity="0.1" stroke-width="2"/>
<path d="M-399.42 283.401C-363.848 269.587 -327.45 266.875 -290.224 275.264C-252.998 283.653 -216.599 280.941 -181.028 267.127C-145.456 253.313 -109.058 250.6 -71.8319 258.989C-34.606 267.378 1.79263 264.666 37.364 250.852C72.9353 237.038 109.334 234.326 146.56 242.715C183.786 251.104 220.184 248.391 255.756 234.578C291.327 220.764 327.726 218.051 364.952 226.44C402.178 234.829 438.576 232.117 474.148 218.303C509.719 204.489 546.118 201.777 583.343 210.166C620.569 218.555 656.968 215.842 692.539 202.028C728.111 188.215 764.509 185.502 801.735 193.891C838.961 202.28 875.36 199.568 910.931 185.754C946.502 171.94 982.901 169.228 1020.13 177.617C1057.35 186.006 1093.75 183.293 1129.32 169.479C1164.89 155.665 1201.29 152.953 1238.52 161.342C1275.74 169.731 1312.14 167.019 1347.71 153.205C1383.29 139.391 1419.68 136.678 1456.91 145.067C1494.14 153.456 1530.54 150.744 1566.11 136.93C1601.68 123.116 1638.08 120.404 1675.3 128.793C1712.53 137.182 1748.93 134.469 1784.5 120.656" stroke="#F2F7FF" stroke-opacity="0.1" stroke-width="2"/>
<path d="M-398.703 293.008C-363.131 279.194 -326.733 276.482 -289.507 284.871C-252.281 293.26 -215.882 290.547 -180.311 276.734C-144.74 262.92 -108.341 260.207 -71.1151 268.596C-33.8892 276.985 2.50943 274.273 38.0808 260.459C73.6521 246.645 110.051 243.933 147.277 252.322C184.503 260.711 220.901 257.998 256.473 244.184C292.044 230.371 328.443 227.658 365.668 236.047C402.894 244.436 439.293 241.724 474.864 227.91C510.436 214.096 546.834 211.384 584.06 219.773C621.286 228.162 657.685 225.449 693.256 211.635C728.827 197.821 765.226 195.109 802.452 203.498C839.678 211.887 876.077 209.175 911.648 195.361C947.219 181.547 983.618 178.834 1020.84 187.223C1058.07 195.612 1094.47 192.9 1130.04 179.086C1165.61 165.272 1202.01 162.56 1239.24 170.949C1276.46 179.338 1312.86 176.625 1348.43 162.812C1384 148.998 1420.4 146.285 1457.63 154.674C1494.85 163.063 1531.25 160.351 1566.82 146.537C1602.39 132.723 1638.79 130.011 1676.02 138.4C1713.25 146.789 1749.64 144.076 1785.22 130.262" stroke="#F2F7FF" stroke-opacity="0.1" stroke-width="2"/>
<path d="M-397.987 302.615C-362.416 288.801 -326.017 286.089 -288.791 294.478C-251.565 302.867 -215.167 300.154 -179.595 286.341C-144.024 272.527 -107.625 269.814 -70.3993 278.203C-33.1733 286.592 3.22529 283.88 38.7966 270.066C74.368 256.252 110.767 253.54 147.993 261.929C185.218 270.318 221.617 267.605 257.188 253.791C292.76 239.978 329.158 237.265 366.384 245.654C403.61 254.043 440.009 251.331 475.58 237.517C511.152 223.703 547.55 220.991 584.776 229.38C622.002 237.769 658.401 235.056 693.972 221.242C729.543 207.428 765.942 204.716 803.168 213.105C840.394 221.494 876.793 218.782 912.364 204.968C947.935 191.154 984.334 188.441 1021.56 196.83C1058.79 205.219 1095.18 202.507 1130.76 188.693C1166.33 174.879 1202.73 172.167 1239.95 180.556C1277.18 188.945 1313.58 186.232 1349.15 172.419C1384.72 158.605 1421.12 155.892 1458.34 164.281C1495.57 172.67 1531.97 169.958 1567.54 156.144C1603.11 142.33 1639.51 139.618 1676.74 148.007C1713.96 156.396 1750.36 153.683 1785.93 139.869" stroke="#F2F7FF" stroke-opacity="0.1" stroke-width="2"/>
<path d="M-397.271 312.222C-361.7 298.408 -325.301 295.695 -288.075 304.084C-250.849 312.473 -214.451 309.761 -178.879 295.947C-143.308 282.133 -106.909 279.421 -69.6835 287.81C-32.4576 296.199 3.94107 293.486 39.5124 279.672C75.0838 265.859 111.482 263.146 148.708 271.535C185.934 279.924 222.333 277.212 257.904 263.398C293.476 249.584 329.874 246.872 367.1 255.261C404.326 263.65 440.725 260.937 476.296 247.123C511.867 233.309 548.266 230.597 585.492 238.986C622.718 247.375 659.116 244.663 694.688 230.849C730.259 217.035 766.658 214.322 803.884 222.711C841.11 231.1 877.508 228.388 913.08 214.574C948.651 200.76 985.05 198.048 1022.28 206.437C1059.5 214.826 1095.9 212.113 1131.47 198.3C1167.04 184.486 1203.44 181.773 1240.67 190.162C1277.89 198.551 1314.29 195.839 1349.86 182.025C1385.43 168.211 1421.83 165.499 1459.06 173.888C1496.28 182.277 1532.68 179.564 1568.25 165.75C1603.83 151.937 1640.22 149.224 1677.45 157.613C1714.68 166.002 1751.08 163.29 1786.65 149.476" stroke="#F2F7FF" stroke-opacity="0.1" stroke-width="2"/>
</g>
<path d="M33.864 39.084H27.564L26.322 42H23.91L29.58 29.4H31.884L37.572 42H35.124L33.864 39.084ZM33.09 37.248L30.714 31.74L28.356 37.248H33.09ZM47.9065 37.248C47.9065 37.404 47.8945 37.626 47.8705 37.914H40.3285C40.4605 38.622 40.8025 39.186 41.3545 39.606C41.9185 40.014 42.6145 40.218 43.4425 40.218C44.4985 40.218 45.3685 39.87 46.0525 39.174L47.2585 40.56C46.8265 41.076 46.2805 41.466 45.6205 41.73C44.9605 41.994 44.2165 42.126 43.3885 42.126C42.3325 42.126 41.4025 41.916 40.5985 41.496C39.7945 41.076 39.1705 40.494 38.7265 39.75C38.2945 38.994 38.0785 38.142 38.0785 37.194C38.0785 36.258 38.2885 35.418 38.7085 34.674C39.1405 33.918 39.7345 33.33 40.4905 32.91C41.2465 32.49 42.0985 32.28 43.0465 32.28C43.9825 32.28 44.8165 32.49 45.5485 32.91C46.2925 33.318 46.8685 33.9 47.2765 34.656C47.6965 35.4 47.9065 36.264 47.9065 37.248ZM43.0465 34.08C42.3265 34.08 41.7145 34.296 41.2105 34.728C40.7185 35.148 40.4185 35.712 40.3105 36.42H45.7645C45.6685 35.724 45.3745 35.16 44.8825 34.728C44.3905 34.296 43.7785 34.08 43.0465 34.08ZM52.2098 33.792C52.8578 32.784 53.9978 32.28 55.6298 32.28V34.422C55.4378 34.386 55.2638 34.368 55.1078 34.368C54.2318 34.368 53.5478 34.626 53.0558 35.142C52.5638 35.646 52.3178 36.378 52.3178 37.338V42H50.0678V32.388H52.2098V33.792ZM61.7706 42.126C60.7986 42.126 59.9226 41.916 59.1426 41.496C58.3626 41.076 57.7506 40.494 57.3066 39.75C56.8746 38.994 56.6586 38.142 56.6586 37.194C56.6586 36.246 56.8746 35.4 57.3066 34.656C57.7506 33.912 58.3626 33.33 59.1426 32.91C59.9226 32.49 60.7986 32.28 61.7706 32.28C62.7546 32.28 63.6366 32.49 64.4166 32.91C65.1966 33.33 65.8026 33.912 66.2346 34.656C66.6786 35.4 66.9006 36.246 66.9006 37.194C66.9006 38.142 66.6786 38.994 66.2346 39.75C65.8026 40.494 65.1966 41.076 64.4166 41.496C63.6366 41.916 62.7546 42.126 61.7706 42.126ZM61.7706 40.2C62.5986 40.2 63.2826 39.924 63.8226 39.372C64.3626 38.82 64.6326 38.094 64.6326 37.194C64.6326 36.294 64.3626 35.568 63.8226 35.016C63.2826 34.464 62.5986 34.188 61.7706 34.188C60.9426 34.188 60.2586 34.464 59.7186 35.016C59.1906 35.568 58.9266 36.294 58.9266 37.194C58.9266 38.094 59.1906 38.82 59.7186 39.372C60.2586 39.924 60.9426 40.2 61.7706 40.2ZM73.4622 42.126C72.4662 42.126 71.5722 41.916 70.7802 41.496C69.9882 41.076 69.3702 40.494 68.9262 39.75C68.4822 38.994 68.2602 38.142 68.2602 37.194C68.2602 36.246 68.4822 35.4 68.9262 34.656C69.3702 33.912 69.9822 33.33 70.7622 32.91C71.5542 32.49 72.4542 32.28 73.4622 32.28C74.4102 32.28 75.2382 32.472 75.9462 32.856C76.6662 33.24 77.2062 33.792 77.5662 34.512L75.8382 35.52C75.5622 35.076 75.2142 34.746 74.7942 34.53C74.3862 34.302 73.9362 34.188 73.4442 34.188C72.6042 34.188 71.9082 34.464 71.3562 35.016C70.8042 35.556 70.5282 36.282 70.5282 37.194C70.5282 38.106 70.7982 38.838 71.3382 39.39C71.8902 39.93 72.5922 40.2 73.4442 40.2C73.9362 40.2 74.3862 40.092 74.7942 39.876C75.2142 39.648 75.5622 39.312 75.8382 38.868L77.5662 39.876C77.1942 40.596 76.6482 41.154 75.9282 41.55C75.2202 41.934 74.3982 42.126 73.4622 42.126ZM83.1832 32.28C84.5992 32.28 85.6792 32.622 86.4232 33.306C87.1792 33.978 87.5572 34.998 87.5572 36.366V42H85.4332V40.83C85.1572 41.25 84.7612 41.574 84.2452 41.802C83.7412 42.018 83.1292 42.126 82.4092 42.126C81.6892 42.126 81.0592 42.006 80.5192 41.766C79.9792 41.514 79.5592 41.172 79.2592 40.74C78.9712 40.296 78.8272 39.798 78.8272 39.246C78.8272 38.382 79.1452 37.692 79.7812 37.176C80.4292 36.648 81.4432 36.384 82.8232 36.384H85.3072V36.24C85.3072 35.568 85.1032 35.052 84.6952 34.692C84.2992 34.332 83.7052 34.152 82.9132 34.152C82.3732 34.152 81.8392 34.236 81.3112 34.404C80.7952 34.572 80.3572 34.806 79.9972 35.106L79.1152 33.468C79.6192 33.084 80.2252 32.79 80.9332 32.586C81.6412 32.382 82.3912 32.28 83.1832 32.28ZM82.8772 40.488C83.4412 40.488 83.9392 40.362 84.3712 40.11C84.8152 39.846 85.1272 39.474 85.3072 38.994V37.878H82.9852C81.6892 37.878 81.0412 38.304 81.0412 39.156C81.0412 39.564 81.2032 39.888 81.5272 40.128C81.8512 40.368 82.3012 40.488 82.8772 40.488ZM92.5868 33.792C93.2348 32.784 94.3748 32.28 96.0068 32.28V34.422C95.8148 34.386 95.6408 34.368 95.4848 34.368C94.6088 34.368 93.9248 34.626 93.4328 35.142C92.9408 35.646 92.6948 36.378 92.6948 37.338V42H90.4448V32.388H92.5868V33.792ZM107.242 28.644V42H105.082V40.758C104.71 41.214 104.248 41.556 103.696 41.784C103.156 42.012 102.556 42.126 101.896 42.126C100.972 42.126 100.138 41.922 99.3936 41.514C98.6616 41.106 98.0856 40.53 97.6656 39.786C97.2456 39.03 97.0356 38.166 97.0356 37.194C97.0356 36.222 97.2456 35.364 97.6656 34.62C98.0856 33.876 98.6616 33.3 99.3936 32.892C100.138 32.484 100.972 32.28 101.896 32.28C102.532 32.28 103.114 32.388 103.642 32.604C104.17 32.82 104.62 33.144 104.992 33.576V28.644H107.242ZM102.166 40.2C102.706 40.2 103.192 40.08 103.624 39.84C104.056 39.588 104.398 39.234 104.65 38.778C104.902 38.322 105.028 37.794 105.028 37.194C105.028 36.594 104.902 36.066 104.65 35.61C104.398 35.154 104.056 34.806 103.624 34.566C103.192 34.314 102.706 34.188 102.166 34.188C101.626 34.188 101.14 34.314 100.708 34.566C100.276 34.806 99.9336 35.154 99.6816 35.61C99.4296 36.066 99.3036 36.594 99.3036 37.194C99.3036 37.794 99.4296 38.322 99.6816 38.778C99.9336 39.234 100.276 39.588 100.708 39.84C101.14 40.08 101.626 40.2 102.166 40.2Z" fill="#F5F9FF"/>
<rect x="232" y="23.5" width="24" height="24" rx="12" fill="#F5F9FF"/>
<g clip-path="url(#clip0_486_6150)">
<path fill-rule="evenodd" clip-rule="evenodd" d="M246.951 28.9017C246.865 28.7566 246.676 28.7069 246.528 28.7907L241.468 31.658C241.353 31.7233 241.293 31.8537 241.32 31.9816L243.023 40.1496C243.031 40.1889 243.014 40.247 242.988 40.2755L242.781 40.5045C242.351 40.9807 241.987 41.2386 241.294 41.2386C240.518 41.2386 240.153 40.8369 239.575 40.1267C238.886 39.2786 238.028 38.2233 235.942 38.2233H235.89C235.606 38.2233 235.375 38.4496 235.375 38.7289C235.375 39.0081 235.606 39.2345 235.89 39.2345H235.942C237.532 39.2345 238.133 39.9742 238.77 40.7574C239.339 41.4571 239.984 42.25 241.294 42.25C242.426 42.25 243.048 41.7335 243.552 41.1755L245.412 39.1171C245.412 39.117 249.836 34.2211 249.836 34.2211C249.924 34.1234 249.939 33.9812 249.872 33.8681L246.951 28.9017Z" fill="#252F3D"/>
</g>
<path d="M26.842 133.14C26.2167 133.14 25.638 133.019 25.106 132.776C24.5833 132.524 24.154 132.174 23.818 131.726L24.854 130.48C25.3953 131.227 26.044 131.6 26.8 131.6C27.8173 131.6 28.326 130.998 28.326 129.794V124.726H24.84V123.2H30.146V129.696C30.146 130.844 29.866 131.707 29.306 132.286C28.746 132.855 27.9247 133.14 26.842 133.14ZM35.8908 133.098C35.1348 133.098 34.4535 132.935 33.8468 132.608C33.2401 132.281 32.7641 131.829 32.4188 131.25C32.0828 130.662 31.9148 129.999 31.9148 129.262C31.9148 128.525 32.0828 127.867 32.4188 127.288C32.7641 126.709 33.2401 126.257 33.8468 125.93C34.4535 125.603 35.1348 125.44 35.8908 125.44C36.6561 125.44 37.3421 125.603 37.9488 125.93C38.5555 126.257 39.0268 126.709 39.3628 127.288C39.7081 127.867 39.8808 128.525 39.8808 129.262C39.8808 129.999 39.7081 130.662 39.3628 131.25C39.0268 131.829 38.5555 132.281 37.9488 132.608C37.3421 132.935 36.6561 133.098 35.8908 133.098ZM35.8908 131.6C36.5348 131.6 37.0668 131.385 37.4868 130.956C37.9068 130.527 38.1168 129.962 38.1168 129.262C38.1168 128.562 37.9068 127.997 37.4868 127.568C37.0668 127.139 36.5348 126.924 35.8908 126.924C35.2468 126.924 34.7148 127.139 34.2948 127.568C33.8841 127.997 33.6788 128.562 33.6788 129.262C33.6788 129.962 33.8841 130.527 34.2948 130.956C34.7148 131.385 35.2468 131.6 35.8908 131.6ZM45.7963 125.44C46.7389 125.44 47.4949 125.715 48.0643 126.266C48.6336 126.817 48.9183 127.633 48.9183 128.716V133H47.1683V128.94C47.1683 128.287 47.0143 127.797 46.7063 127.47C46.3983 127.134 45.9596 126.966 45.3903 126.966C44.7463 126.966 44.2376 127.162 43.8643 127.554C43.4909 127.937 43.3043 128.492 43.3043 129.22V133H41.5543V122.612H43.3043V126.392C43.5936 126.084 43.9483 125.851 44.3683 125.692C44.7976 125.524 45.2736 125.44 45.7963 125.44ZM55.3802 125.44C56.3229 125.44 57.0789 125.715 57.6482 126.266C58.2176 126.817 58.5022 127.633 58.5022 128.716V133H56.7522V128.94C56.7522 128.287 56.5982 127.797 56.2902 127.47C55.9822 127.134 55.5436 126.966 54.9742 126.966C54.3302 126.966 53.8216 127.162 53.4482 127.554C53.0749 127.937 52.8882 128.492 52.8882 129.22V133H51.1382V125.524H52.8042V126.49C53.0936 126.145 53.4576 125.883 53.8962 125.706C54.3349 125.529 54.8296 125.44 55.3802 125.44ZM68.1334 128.898L66.5794 130.494V133H64.7594V123.2H66.5794V128.226L71.4234 123.2H73.4674L69.3514 127.582L73.7194 133H71.5914L68.1334 128.898ZM74.6539 125.524H76.4039V133H74.6539V125.524ZM75.5359 124.292C75.2185 124.292 74.9525 124.194 74.7379 123.998C74.5232 123.793 74.4159 123.541 74.4159 123.242C74.4159 122.943 74.5232 122.696 74.7379 122.5C74.9525 122.295 75.2185 122.192 75.5359 122.192C75.8532 122.192 76.1192 122.29 76.3339 122.486C76.5485 122.673 76.6559 122.911 76.6559 123.2C76.6559 123.508 76.5485 123.769 76.3339 123.984C76.1285 124.189 75.8625 124.292 75.5359 124.292ZM83.1947 132.594C82.9894 132.762 82.7374 132.888 82.4387 132.972C82.1494 133.056 81.8414 133.098 81.5147 133.098C80.6934 133.098 80.0587 132.883 79.6107 132.454C79.1627 132.025 78.9387 131.399 78.9387 130.578V126.98H77.7067V125.58H78.9387V123.872H80.6887V125.58H82.6907V126.98H80.6887V130.536C80.6887 130.9 80.7774 131.18 80.9547 131.376C81.1321 131.563 81.3887 131.656 81.7247 131.656C82.1167 131.656 82.4434 131.553 82.7047 131.348L83.1947 132.594ZM91.4162 129.304C91.4162 129.425 91.4069 129.598 91.3882 129.822H85.5222C85.6249 130.373 85.8909 130.811 86.3202 131.138C86.7589 131.455 87.3002 131.614 87.9442 131.614C88.7656 131.614 89.4422 131.343 89.9742 130.802L90.9122 131.88C90.5762 132.281 90.1516 132.585 89.6382 132.79C89.1249 132.995 88.5462 133.098 87.9022 133.098C87.0809 133.098 86.3576 132.935 85.7322 132.608C85.1069 132.281 84.6216 131.829 84.2762 131.25C83.9402 130.662 83.7722 129.999 83.7722 129.262C83.7722 128.534 83.9356 127.881 84.2622 127.302C84.5982 126.714 85.0602 126.257 85.6482 125.93C86.2362 125.603 86.8989 125.44 87.6362 125.44C88.3642 125.44 89.0129 125.603 89.5822 125.93C90.1609 126.247 90.6089 126.7 90.9262 127.288C91.2529 127.867 91.4162 128.539 91.4162 129.304ZM87.6362 126.84C87.0762 126.84 86.6002 127.008 86.2082 127.344C85.8256 127.671 85.5922 128.109 85.5082 128.66H89.7502C89.6756 128.119 89.4469 127.68 89.0642 127.344C88.6816 127.008 88.2056 126.84 87.6362 126.84Z" fill="#F5F9FF"/>
<path d="M221.903 133.14C221.119 133.14 220.419 132.944 219.803 132.552C219.187 132.151 218.702 131.572 218.347 130.816C217.993 130.051 217.815 129.145 217.815 128.1C217.815 127.055 217.993 126.154 218.347 125.398C218.702 124.633 219.187 124.054 219.803 123.662C220.419 123.261 221.119 123.06 221.903 123.06C222.687 123.06 223.387 123.261 224.003 123.662C224.629 124.054 225.119 124.633 225.473 125.398C225.828 126.154 226.005 127.055 226.005 128.1C226.005 129.145 225.828 130.051 225.473 130.816C225.119 131.572 224.629 132.151 224.003 132.552C223.387 132.944 222.687 133.14 221.903 133.14ZM221.903 131.558C222.603 131.558 223.154 131.269 223.555 130.69C223.966 130.111 224.171 129.248 224.171 128.1C224.171 126.952 223.966 126.089 223.555 125.51C223.154 124.931 222.603 124.642 221.903 124.642C221.213 124.642 220.662 124.931 220.251 125.51C219.85 126.089 219.649 126.952 219.649 128.1C219.649 129.248 219.85 130.111 220.251 130.69C220.662 131.269 221.213 131.558 221.903 131.558ZM234.559 123.2V124.418L230.751 133H228.805L232.487 124.74H228.637V126.406H226.943V123.2H234.559ZM238.708 121.212H240.276L235.656 134.4H234.088L238.708 121.212ZM247.417 131.46V133H240.193V131.782L244.085 128.086C244.524 127.666 244.818 127.302 244.967 126.994C245.126 126.677 245.205 126.364 245.205 126.056C245.205 125.599 245.051 125.249 244.743 125.006C244.435 124.763 243.982 124.642 243.385 124.642C242.386 124.642 241.621 124.983 241.089 125.664L239.815 124.684C240.198 124.171 240.711 123.774 241.355 123.494C242.008 123.205 242.736 123.06 243.539 123.06C244.603 123.06 245.452 123.312 246.087 123.816C246.722 124.32 247.039 125.006 247.039 125.874C247.039 126.406 246.927 126.905 246.703 127.372C246.479 127.839 246.05 128.371 245.415 128.968L242.797 131.46H247.417ZM252.64 127.246C253.545 127.358 254.236 127.666 254.712 128.17C255.188 128.674 255.426 129.304 255.426 130.06C255.426 130.629 255.281 131.147 254.992 131.614C254.702 132.081 254.264 132.454 253.676 132.734C253.097 133.005 252.388 133.14 251.548 133.14C250.848 133.14 250.171 133.042 249.518 132.846C248.874 132.641 248.323 132.361 247.866 132.006L248.65 130.592C249.004 130.891 249.434 131.129 249.938 131.306C250.451 131.474 250.978 131.558 251.52 131.558C252.164 131.558 252.668 131.427 253.032 131.166C253.405 130.895 253.592 130.531 253.592 130.074C253.592 129.617 253.414 129.262 253.06 129.01C252.714 128.749 252.182 128.618 251.464 128.618H250.568V127.372L252.794 124.726H248.342V123.2H255.02V124.418L252.64 127.246Z" fill="#F5F9FF"/>
</g>
<defs>
<filter id="filter0_d_486_6150" x="0" y="0" width="280" height="164" filterUnits="userSpaceOnUse" color-interpolation-filters="sRGB">
<feFlood flood-opacity="0" result="BackgroundImageFix"/>
<feColorMatrix in="SourceAlpha" type="matrix" values="0 0 0 0 0 0 0 0 0 0 0 0 0 0 0 0 0 0 127 0" result="hardAlpha"/>
<feOffset dy="2"/>
<feGaussianBlur stdDeviation="4"/>
<feComposite in2="hardAlpha" operator="out"/>
<feColorMatrix type="matrix" values="0 0 0 0 0 0 0 0 0 0 0 0 0 0 0 0 0 0 0.05 0"/>
<feBlend mode="normal" in2="BackgroundImageFix" result="effect1_dropShadow_486_6150"/>
<feBlend mode="normal" in="SourceGraphic" in2="effect1_dropShadow_486_6150" result="shape"/>
</filter>
<filter id="filter1_d_486_6150" x="0" y="0" width="280" height="164" filterUnits="userSpaceOnUse" color-interpolation-filters="sRGB">
<feFlood flood-opacity="0" result="BackgroundImageFix"/>
<feColorMatrix in="SourceAlpha" type="matrix" values="0 0 0 0 0 0 0 0 0 0 0 0 0 0 0 0 0 0 127 0" result="hardAlpha"/>
<feOffset dy="2"/>
<feGaussianBlur stdDeviation="4"/>
<feComposite in2="hardAlpha" operator="out"/>
<feColorMatrix type="matrix" values="0 0 0 0 0 0 0 0 0 0 0 0 0 0 0 0 0 0 0.05 0"/>
<feBlend mode="normal" in2="BackgroundImageFix" result="effect1_dropShadow_486_6150"/>
<feBlend mode="normal" in="SourceGraphic" in2="effect1_dropShadow_486_6150" result="shape"/>
</filter>
<clipPath id="clip0_486_6150">
<rect width="14.625" height="13.5" fill="white" transform="translate(235.375 28.75)"/>
</clipPath>
</defs>
</svg>
