<?xml version="1.0" encoding="UTF-8"?>
<svg xmlns="http://www.w3.org/2000/svg" version="1.1" xmlns:xlink="http://www.w3.org/1999/xlink" viewBox="0 0 344 193.7">
  <defs>
    <style>
      .cls-1 {
        fill-rule: evenodd;
      }

      .cls-1, .cls-2 {
        fill: #252f3d;
      }

      .cls-3 {
        stroke-width: 2px;
      }

      .cls-3, .cls-4, .cls-5 {
        fill: none;
      }

      .cls-3, .cls-5 {
        stroke: #f2f7ff;
        stroke-opacity: .1;
      }

      .cls-6 {
        mask: url(#mask);
      }

      .cls-7 {
        clip-path: url(#clippath-1);
      }

      .cls-8 {
        fill: #f5f9ff;
      }

      .cls-9 {
        clip-path: url(#clippath);
      }
    </style>
    <clipPath id="clippath">
      <rect class="cls-4" width="344" height="193.7"/>
    </clipPath>
    <mask id="mask" x="-547.9" y="-75.6" width="2865.8" height="476.3" maskUnits="userSpaceOnUse">
      <g id="mask0_486_6150">
        <rect class="cls-2" y=".8" width="344" height="192.8" rx="10.4" ry="10.4"/>
      </g>
    </mask>
    <clipPath id="clippath-1">
      <rect class="cls-4" x="296.3" y="30.5" width="19.1" height="17.6"/>
    </clipPath>
  </defs>
  <!-- Generator: Adobe Illustrator 28.6.0, SVG Export Plug-In . SVG Version: 1.2.0 Build 709)  -->
  <g>
    <g id="Capa_1">
      <g class="cls-9">
        <g>
          <rect class="cls-2" y=".8" width="344" height="192.8" rx="10.4" ry="10.4"/>
          <g class="cls-6">
            <g>
              <path class="cls-5" d="M-547.7,137c46.4-18,93.8-21.5,142.3-10.6,48.5,10.9,95.9,7.4,142.3-10.6,46.4-18,93.8-21.5,142.3-10.6,48.5,10.9,95.9,7.4,142.3-10.6,46.4-18,93.8-21.5,142.3-10.6s95.9,7.4,142.3-10.6c46.4-18,93.8-21.5,142.3-10.6,48.5,10.9,95.9,7.4,142.3-10.6,46.4-18,93.8-21.5,142.3-10.6,48.5,10.9,95.9,7.4,142.3-10.6,46.4-18,93.8-21.5,142.3-10.6,48.5,10.9,95.9,7.4,142.3-10.6,46.4-18,93.8-21.5,142.3-10.6,48.5,10.9,95.9,7.4,142.3-10.6,46.3-18,93.8-21.5,142.3-10.6,48.5,10.9,95.9,7.4,142.3-10.6,46.3-18,93.8-21.5,142.3-10.6,48.5,10.9,95.9,7.4,142.3-10.6,46.3-18,93.8-21.5,142.3-10.6,48.5,10.9,95.9,7.4,142.3-10.6"/>
              <path class="cls-5" d="M-546.7,149.5c46.4-18,93.8-21.5,142.3-10.6,48.5,10.9,95.9,7.4,142.3-10.6,46.4-18,93.8-21.5,142.3-10.6,48.5,10.9,95.9,7.4,142.3-10.6,46.4-18,93.8-21.5,142.3-10.6,48.5,10.9,95.9,7.4,142.3-10.6,46.4-18,93.8-21.5,142.3-10.6,48.5,10.9,95.9,7.4,142.3-10.6,46.4-18,93.8-21.5,142.3-10.6,48.5,10.9,95.9,7.4,142.3-10.6,46.4-18,93.8-21.5,142.3-10.6,48.5,10.9,95.9,7.4,142.3-10.6,46.4-18,93.8-21.5,142.3-10.6,48.5,10.9,95.9,7.4,142.3-10.6,46.3-18,93.8-21.5,142.3-10.6,48.5,10.9,95.9,7.4,142.3-10.6,46.4-18,93.8-21.5,142.3-10.6,48.5,10.9,95.9,7.4,142.3-10.6,46.3-18,93.8-21.5,142.3-10.6,48.5,10.9,95.9,7.4,142.3-10.6"/>
              <path class="cls-5" d="M-545.8,162c46.4-18,93.8-21.5,142.3-10.6,48.5,10.9,95.9,7.4,142.3-10.6,46.4-18,93.8-21.5,142.3-10.6,48.5,10.9,95.9,7.4,142.3-10.6,46.4-18,93.8-21.5,142.3-10.6,48.5,10.9,95.9,7.4,142.3-10.6,46.4-18,93.8-21.5,142.3-10.6,48.5,10.9,95.9,7.4,142.3-10.6,46.4-18,93.8-21.5,142.3-10.6,48.5,10.9,95.9,7.4,142.3-10.6,46.4-18,93.8-21.5,142.3-10.6,48.5,10.9,95.9,7.4,142.3-10.6,46.4-18,93.8-21.5,142.3-10.6,48.5,10.9,95.9,7.4,142.3-10.6,46.3-18,93.8-21.5,142.3-10.6,48.5,10.9,95.9,7.4,142.3-10.6,46.3-18,93.8-21.5,142.3-10.6,48.5,10.9,95.9,7.4,142.3-10.6,46.3-18,93.8-21.5,142.3-10.6,48.5,10.9,95.9,7.4,142.3-10.6"/>
              <path class="cls-5" d="M-544.9,174.5c46.4-18,93.8-21.5,142.3-10.6,48.5,10.9,95.9,7.4,142.3-10.6,46.4-18,93.8-21.5,142.3-10.6,48.5,10.9,95.9,7.4,142.3-10.6,46.4-18,93.8-21.5,142.3-10.6,48.5,10.9,95.9,7.4,142.3-10.6,46.4-18,93.8-21.5,142.3-10.6,48.5,10.9,95.9,7.4,142.3-10.6,46.4-18,93.8-21.5,142.3-10.6,48.5,10.9,95.9,7.4,142.3-10.6,46.4-18,93.8-21.5,142.3-10.6,48.5,10.9,95.9,7.4,142.3-10.6,46.4-18,93.8-21.5,142.3-10.6,48.5,10.9,95.9,7.4,142.3-10.6,46.4-18,93.8-21.5,142.3-10.6s95.9,7.4,142.3-10.6c46.3-18,93.8-21.5,142.3-10.6,48.5,10.9,95.9,7.4,142.3-10.6,46.3-18,93.8-21.5,142.3-10.6,48.5,10.9,95.9,7.4,142.3-10.6"/>
              <path class="cls-5" d="M-543.9,187c46.4-18,93.8-21.5,142.3-10.6,48.5,10.9,95.9,7.4,142.3-10.6,46.4-18,93.8-21.5,142.3-10.6,48.5,10.9,95.9,7.4,142.3-10.6,46.4-18,93.8-21.5,142.3-10.6,48.5,10.9,95.9,7.4,142.3-10.6,46.4-18,93.8-21.5,142.3-10.6,48.5,10.9,95.9,7.4,142.3-10.6,46.4-18,93.8-21.5,142.3-10.6,48.5,10.9,95.9,7.4,142.3-10.6,46.4-18,93.8-21.5,142.3-10.6,48.5,10.9,95.9,7.4,142.3-10.6,46.4-18,93.8-21.5,142.3-10.6,48.5,10.9,95.9,7.4,142.3-10.6,46.3-18,93.8-21.5,142.3-10.6,48.5,10.9,95.9,7.4,142.3-10.6,46.3-18,93.8-21.5,142.3-10.6,48.5,10.9,95.9,7.4,142.3-10.6,46.4-18,93.8-21.5,142.3-10.6,48.5,10.9,95.9,7.4,142.3-10.6"/>
              <path class="cls-5" d="M-543,199.5c46.4-18,93.8-21.5,142.3-10.6,48.5,10.9,95.9,7.4,142.3-10.6,46.4-18,93.8-21.5,142.3-10.6,48.5,10.9,95.9,7.4,142.3-10.6,46.4-18,93.8-21.5,142.3-10.6,48.5,10.9,95.9,7.4,142.3-10.6,46.4-18,93.8-21.5,142.3-10.6,48.5,10.9,95.9,7.4,142.3-10.6,46.4-18,93.8-21.5,142.3-10.6,48.5,10.9,95.9,7.4,142.3-10.6,46.4-18,93.8-21.5,142.3-10.6,48.5,10.9,95.9,7.4,142.3-10.6,46.4-18,93.8-21.5,142.3-10.6,48.5,10.9,95.9,7.4,142.3-10.6,46.3-18,93.8-21.5,142.3-10.6,48.5,10.9,95.9,7.4,142.3-10.6,46.3-18,93.8-21.5,142.3-10.6,48.5,10.9,95.9,7.4,142.3-10.6,46.3-18,93.8-21.5,142.3-10.6,48.5,10.9,95.9,7.4,142.3-10.6"/>
              <path class="cls-5" d="M-542.1,212.1c46.4-18,93.8-21.5,142.3-10.6,48.5,10.9,95.9,7.4,142.3-10.6,46.4-18,93.8-21.5,142.3-10.6,48.5,10.9,95.9,7.4,142.3-10.6,46.4-18,93.8-21.5,142.3-10.6,48.5,10.9,95.9,7.4,142.3-10.6,46.4-18,93.8-21.5,142.3-10.6,48.5,10.9,95.9,7.4,142.3-10.6,46.4-18,93.8-21.5,142.3-10.6,48.5,10.9,95.9,7.4,142.3-10.6,46.4-18,93.8-21.5,142.3-10.6,48.5,10.9,95.9,7.4,142.3-10.6,46.4-18,93.8-21.5,142.3-10.6,48.5,10.9,95.9,7.4,142.3-10.6,46.3-18,93.8-21.5,142.3-10.6,48.5,10.9,95.9,7.4,142.3-10.6,46.4-18,93.8-21.5,142.3-10.6,48.5,10.9,95.9,7.4,142.3-10.6,46.3-18,93.8-21.5,142.3-10.6,48.5,10.9,95.9,7.4,142.3-10.6"/>
              <path class="cls-3" d="M-541.1,224.6c46.4-18,93.8-21.5,142.3-10.6,48.5,10.9,95.9,7.4,142.3-10.6,46.4-18,93.8-21.5,142.3-10.6,48.5,10.9,95.9,7.4,142.3-10.6,46.4-18,93.8-21.5,142.3-10.6,48.5,10.9,95.9,7.4,142.3-10.6,46.4-18,93.8-21.5,142.3-10.6,48.5,10.9,95.9,7.4,142.3-10.6,46.4-18,93.8-21.5,142.3-10.6,48.5,10.9,95.9,7.4,142.3-10.6,46.4-18,93.8-21.5,142.3-10.6,48.5,10.9,95.9,7.4,142.3-10.6,46.4-18,93.8-21.5,142.3-10.6,48.5,10.9,95.9,7.4,142.3-10.6,46.3-18,93.8-21.5,142.3-10.6,48.5,10.9,95.9,7.4,142.3-10.6,46.3-18,93.8-21.5,142.3-10.6,48.5,10.9,95.9,7.4,142.3-10.6,46.3-18,93.8-21.5,142.3-10.6,48.5,10.9,95.9,7.4,142.3-10.6"/>
              <path class="cls-3" d="M-540.2,237.1c46.4-18,93.8-21.5,142.3-10.6,48.5,10.9,95.9,7.4,142.3-10.6,46.4-18,93.8-21.5,142.3-10.6,48.5,10.9,95.9,7.4,142.3-10.6,46.4-18,93.8-21.5,142.3-10.6,48.5,10.9,95.9,7.4,142.3-10.6,46.4-18,93.8-21.5,142.3-10.6,48.5,10.9,95.9,7.4,142.3-10.6,46.4-18,93.8-21.5,142.3-10.6,48.5,10.9,95.9,7.4,142.3-10.6,46.4-18,93.8-21.5,142.3-10.6,48.5,10.9,95.9,7.4,142.3-10.6,46.4-18,93.8-21.5,142.3-10.6,48.5,10.9,95.9,7.4,142.3-10.6,46.4-18,93.8-21.5,142.3-10.6,48.5,10.9,95.9,7.4,142.3-10.6,46.3-18,93.8-21.5,142.3-10.6,48.5,10.9,95.9,7.4,142.3-10.6,46.3-18,93.8-21.5,142.3-10.6,48.5,10.9,95.9,7.4,142.3-10.6"/>
              <path class="cls-3" d="M-539.3,249.6c46.4-18,93.8-21.5,142.3-10.6,48.5,10.9,95.9,7.4,142.3-10.6,46.4-18,93.8-21.5,142.3-10.6,48.5,10.9,95.9,7.4,142.3-10.6,46.4-18,93.8-21.5,142.3-10.6,48.5,10.9,95.9,7.4,142.3-10.6,46.4-18,93.8-21.5,142.3-10.6,48.5,10.9,95.9,7.4,142.3-10.6,46.4-18,93.8-21.5,142.3-10.6,48.5,10.9,95.9,7.4,142.3-10.6,46.4-18,93.8-21.5,142.3-10.6,48.5,10.9,95.9,7.4,142.3-10.6,46.4-18,93.8-21.5,142.3-10.6,48.5,10.9,95.9,7.4,142.3-10.6,46.3-18,93.8-21.5,142.3-10.6,48.5,10.9,95.9,7.4,142.3-10.6,46.3-18,93.8-21.5,142.3-10.6,48.5,10.9,95.9,7.4,142.3-10.6,46.4-18,93.8-21.5,142.3-10.6,48.5,10.9,95.9,7.4,142.3-10.6"/>
              <path class="cls-3" d="M-538.3,262.1c46.4-18,93.8-21.5,142.3-10.6,48.5,10.9,95.9,7.4,142.3-10.6,46.4-18,93.8-21.5,142.3-10.6,48.5,10.9,95.9,7.4,142.3-10.6,46.4-18,93.8-21.5,142.3-10.6,48.5,10.9,95.9,7.4,142.3-10.6,46.4-18,93.8-21.5,142.3-10.6,48.5,10.9,95.9,7.4,142.3-10.6,46.4-18,93.8-21.5,142.3-10.6,48.5,10.9,95.9,7.4,142.3-10.6,46.4-18,93.8-21.5,142.3-10.6,48.5,10.9,95.9,7.4,142.3-10.6,46.4-18,93.8-21.5,142.3-10.6,48.5,10.9,95.9,7.4,142.3-10.6,46.3-18,93.8-21.5,142.3-10.6,48.5,10.9,95.9,7.4,142.3-10.6,46.3-18,93.8-21.5,142.3-10.6,48.5,10.9,95.9,7.4,142.3-10.6,46.3-18,93.8-21.5,142.3-10.6,48.5,10.9,95.9,7.4,142.3-10.6"/>
              <path class="cls-3" d="M-537.4,274.7c46.4-18,93.8-21.5,142.3-10.6,48.5,10.9,95.9,7.4,142.3-10.6,46.4-18,93.8-21.5,142.3-10.6,48.5,10.9,95.9,7.4,142.3-10.6,46.4-18,93.8-21.5,142.3-10.6,48.5,10.9,95.9,7.4,142.3-10.6,46.4-18,93.8-21.5,142.3-10.6,48.5,10.9,95.9,7.4,142.3-10.6,46.4-18,93.8-21.5,142.3-10.6,48.5,10.9,95.9,7.4,142.3-10.6,46.4-18,93.8-21.5,142.3-10.6,48.5,10.9,95.9,7.4,142.3-10.6,46.4-18,93.8-21.5,142.3-10.6,48.5,10.9,95.9,7.4,142.3-10.6,46.3-18,93.8-21.5,142.3-10.6,48.5,10.9,95.9,7.4,142.3-10.6,46.4-18,93.8-21.5,142.3-10.6,48.5,10.9,95.9,7.4,142.3-10.6,46.3-18,93.8-21.5,142.3-10.6,48.5,10.9,95.9,7.4,142.3-10.6"/>
              <path class="cls-3" d="M-536.5,287.2c46.4-18,93.8-21.5,142.3-10.6,48.5,10.9,95.9,7.4,142.3-10.6,46.4-18,93.8-21.5,142.3-10.6,48.5,10.9,95.9,7.4,142.3-10.6,46.3-18,93.8-21.5,142.3-10.6,48.5,10.9,95.9,7.4,142.3-10.6,46.4-18,93.8-21.5,142.3-10.6,48.5,10.9,95.9,7.4,142.3-10.6,46.4-18,93.8-21.5,142.3-10.6,48.5,10.9,95.9,7.4,142.3-10.6,46.4-18,93.8-21.5,142.3-10.6,48.5,10.9,95.9,7.4,142.3-10.6,46.4-18,93.8-21.5,142.3-10.6,48.5,10.9,95.9,7.4,142.3-10.6,46.3-18,93.8-21.5,142.3-10.6,48.5,10.9,95.9,7.4,142.3-10.6,46.3-18,93.8-21.5,142.3-10.6,48.5,10.9,95.9,7.4,142.3-10.6,46.3-18,93.8-21.5,142.3-10.6,48.5,10.9,95.9,7.4,142.3-10.6"/>
              <path class="cls-3" d="M-535.5,299.7c46.4-18,93.8-21.5,142.3-10.6,48.5,10.9,95.9,7.4,142.3-10.6,46.4-18,93.8-21.5,142.3-10.6,48.5,10.9,95.9,7.4,142.3-10.6,46.4-18,93.8-21.5,142.3-10.6,48.5,10.9,95.9,7.4,142.3-10.6,46.4-18,93.8-21.5,142.3-10.6,48.5,10.9,95.9,7.4,142.3-10.6,46.4-18,93.8-21.5,142.3-10.6,48.5,10.9,95.9,7.4,142.3-10.6,46.4-18,93.8-21.5,142.3-10.6,48.5,10.9,95.9,7.4,142.3-10.6,46.4-18,93.8-21.5,142.3-10.6,48.5,10.9,95.9,7.4,142.3-10.6,46.4-18,93.8-21.5,142.3-10.6,48.5,10.9,95.9,7.4,142.3-10.6,46.3-18,93.8-21.5,142.3-10.6,48.5,10.9,95.9,7.4,142.3-10.6,46.3-18,93.8-21.5,142.3-10.6,48.5,10.9,95.9,7.4,142.3-10.6"/>
              <path class="cls-3" d="M-534.6,312.2c46.4-18,93.8-21.5,142.3-10.6,48.5,10.9,95.9,7.4,142.3-10.6,46.4-18,93.8-21.5,142.3-10.6,48.5,10.9,95.9,7.4,142.3-10.6,46.4-18,93.8-21.5,142.3-10.6,48.5,10.9,95.9,7.4,142.3-10.6,46.4-18,93.8-21.5,142.3-10.6,48.5,10.9,95.9,7.4,142.3-10.6,46.4-18,93.8-21.5,142.3-10.6,48.5,10.9,95.9,7.4,142.3-10.6,46.4-18,93.8-21.5,142.3-10.6,48.5,10.9,95.9,7.4,142.3-10.6,46.4-18,93.8-21.5,142.3-10.6,48.5,10.9,95.9,7.4,142.3-10.6,46.3-18,93.8-21.5,142.3-10.6,48.5,10.9,95.9,7.4,142.3-10.6,46.3-18,93.8-21.5,142.3-10.6,48.5,10.9,95.9,7.4,142.3-10.6,46.3-18,93.8-21.5,142.3-10.6,48.5,10.9,95.9,7.4,142.3-10.6"/>
              <path class="cls-3" d="M-533.7,324.7c46.4-18,93.8-21.5,142.3-10.6,48.5,10.9,95.9,7.4,142.3-10.6,46.4-18,93.8-21.5,142.3-10.6,48.5,10.9,95.9,7.4,142.3-10.6,46.4-18,93.8-21.5,142.3-10.6,48.5,10.9,95.9,7.4,142.3-10.6,46.4-18,93.8-21.5,142.3-10.6,48.5,10.9,95.9,7.4,142.3-10.6,46.4-18,93.8-21.5,142.3-10.6,48.5,10.9,95.9,7.4,142.3-10.6,46.4-18,93.8-21.5,142.3-10.6,48.5,10.9,95.9,7.4,142.3-10.6,46.4-18,93.8-21.5,142.3-10.6,48.5,10.9,95.9,7.4,142.3-10.6,46.3-18,93.8-21.5,142.3-10.6,48.5,10.9,95.9,7.4,142.3-10.6,46.3-18,93.8-21.5,142.3-10.6,48.5,10.9,95.9,7.4,142.3-10.6,46.3-18,93.8-21.5,142.3-10.6,48.5,10.9,95.9,7.4,142.3-10.6"/>
              <path class="cls-3" d="M-532.7,337.2c46.4-18,93.8-21.5,142.3-10.6,48.5,10.9,95.9,7.4,142.3-10.6,46.4-18,93.8-21.5,142.3-10.6,48.5,10.9,95.9,7.4,142.3-10.6,46.4-18,93.8-21.5,142.3-10.6,48.5,10.9,95.9,7.4,142.3-10.6,46.4-18,93.8-21.5,142.3-10.6,48.5,10.9,95.9,7.4,142.3-10.6,46.4-18,93.8-21.5,142.3-10.6,48.5,10.9,95.9,7.4,142.3-10.6,46.4-18,93.8-21.5,142.3-10.6,48.5,10.9,95.9,7.4,142.3-10.6,46.4-18,93.8-21.5,142.3-10.6,48.5,10.9,95.9,7.4,142.3-10.6,46.3-18,93.8-21.5,142.3-10.6,48.5,10.9,95.9,7.4,142.3-10.6,46.3-18,93.8-21.5,142.3-10.6,48.5,10.9,95.9,7.4,142.3-10.6,46.4-18,93.8-21.5,142.3-10.6,48.5,10.9,95.9,7.4,142.3-10.6"/>
              <path class="cls-3" d="M-531.8,349.8c46.4-18,93.8-21.5,142.3-10.6,48.5,10.9,95.9,7.4,142.3-10.6,46.4-18,93.8-21.5,142.3-10.6,48.5,10.9,95.9,7.4,142.3-10.6,46.4-18,93.8-21.5,142.3-10.6,48.5,10.9,95.9,7.4,142.3-10.6,46.4-18,93.8-21.5,142.3-10.6,48.5,10.9,95.9,7.4,142.3-10.6,46.4-18,93.8-21.5,142.3-10.6,48.5,10.9,95.9,7.4,142.3-10.6,46.4-18,93.8-21.5,142.3-10.6,48.5,10.9,95.9,7.4,142.3-10.6,46.4-18,93.8-21.5,142.3-10.6,48.5,10.9,95.9,7.4,142.3-10.6,46.3-18,93.8-21.5,142.3-10.6,48.5,10.9,95.9,7.4,142.3-10.6,46.3-18,93.8-21.5,142.3-10.6,48.5,10.9,95.9,7.4,142.3-10.6,46.3-18,93.8-21.5,142.3-10.6,48.5,10.9,95.9,7.4,142.3-10.6"/>
              <path class="cls-3" d="M-530.9,362.3c46.4-18,93.8-21.5,142.3-10.6,48.5,10.9,95.9,7.4,142.3-10.6,46.4-18,93.8-21.5,142.3-10.6,48.5,10.9,95.9,7.4,142.3-10.6,46.4-18,93.8-21.5,142.3-10.6,48.5,10.9,95.9,7.4,142.3-10.6,46.4-18,93.8-21.5,142.3-10.6,48.5,10.9,95.9,7.4,142.3-10.6,46.4-18,93.8-21.5,142.3-10.6,48.5,10.9,95.9,7.4,142.3-10.6,46.4-18,93.8-21.5,142.3-10.6,48.5,10.9,95.9,7.4,142.3-10.6,46.4-18,93.8-21.5,142.3-10.6,48.5,10.9,95.9,7.4,142.3-10.6,46.3-18,93.8-21.5,142.3-10.6,48.5,10.9,95.9,7.4,142.3-10.6,46.4-18,93.8-21.5,142.3-10.6,48.5,10.9,95.9,7.4,142.3-10.6,46.3-18,93.8-21.5,142.3-10.6,48.5,10.9,95.9,7.4,142.3-10.6"/>
              <path class="cls-3" d="M-529.9,374.8c46.4-18,93.8-21.5,142.3-10.6,48.5,10.9,95.9,7.4,142.3-10.6,46.4-18,93.8-21.5,142.3-10.6,48.5,10.9,95.9,7.4,142.3-10.6,46.4-18,93.8-21.5,142.3-10.6,48.5,10.9,95.9,7.4,142.3-10.6,46.4-18,93.8-21.5,142.3-10.6,48.5,10.9,95.9,7.4,142.3-10.6,46.4-18,93.8-21.5,142.3-10.6,48.5,10.9,95.9,7.4,142.3-10.6,46.4-18,93.8-21.5,142.3-10.6,48.5,10.9,95.9,7.4,142.3-10.6,46.4-18,93.8-21.5,142.3-10.6,48.5,10.9,95.9,7.4,142.3-10.6,46.3-18,93.8-21.5,142.3-10.6,48.5,10.9,95.9,7.4,142.3-10.6,46.3-18,93.8-21.5,142.3-10.6,48.5,10.9,95.9,7.4,142.3-10.6,46.3-18,93.8-21.5,142.3-10.6,48.5,10.9,95.9,7.4,142.3-10.6"/>
              <path class="cls-3" d="M-529,387.3c46.4-18,93.8-21.5,142.3-10.6,48.5,10.9,95.9,7.4,142.3-10.6,46.4-18,93.8-21.5,142.3-10.6,48.5,10.9,95.9,7.4,142.3-10.6,46.4-18,93.8-21.5,142.3-10.6,48.5,10.9,95.9,7.4,142.3-10.6,46.4-18,93.8-21.5,142.3-10.6,48.5,10.9,95.9,7.4,142.3-10.6,46.4-18,93.8-21.5,142.3-10.6,48.5,10.9,95.9,7.4,142.3-10.6,46.4-18,93.8-21.5,142.3-10.6,48.5,10.9,95.9,7.4,142.3-10.6,46.4-18,93.8-21.5,142.3-10.6,48.5,10.9,95.9,7.4,142.3-10.6,46.3-18,93.8-21.5,142.3-10.6,48.5,10.9,95.9,7.4,142.3-10.6,46.3-18,93.8-21.5,142.3-10.6,48.5,10.9,95.9,7.4,142.3-10.6,46.3-18,93.8-21.5,142.3-10.6,48.5,10.9,95.9,7.4,142.3-10.6"/>
              <path class="cls-3" d="M-528.1,399.8c46.4-18,93.8-21.5,142.3-10.6,48.5,10.9,95.9,7.4,142.3-10.6,46.4-18,93.8-21.5,142.3-10.6,48.5,10.9,95.9,7.4,142.3-10.6,46.4-18,93.8-21.5,142.3-10.6,48.5,10.9,95.9,7.4,142.3-10.6,46.4-18,93.8-21.5,142.3-10.6,48.5,10.9,95.9,7.4,142.3-10.6,46.4-18,93.8-21.5,142.3-10.6,48.5,10.9,95.9,7.4,142.3-10.6,46.4-18,93.8-21.5,142.3-10.6,48.5,10.9,95.9,7.4,142.3-10.6,46.4-18,93.8-21.5,142.3-10.6,48.5,10.9,95.9,7.4,142.3-10.6,46.3-18,93.8-21.5,142.3-10.6,48.5,10.9,95.9,7.4,142.3-10.6,46.3-18,93.8-21.5,142.3-10.6,48.5,10.9,95.9,7.4,142.3-10.6,46.4-18,93.8-21.5,142.3-10.6,48.5,10.9,95.9,7.4,142.3-10.6"/>
            </g>
          </g>
          <path class="cls-8" d="M20.7,47.7l7.4-16.4h3l7.4,16.4h-3.2l-6.4-14.8h1.2l-6.3,14.8h-3.1ZM24.1,43.9l.8-2.4h8.9l.8,2.4h-10.5ZM46.1,47.9c-1.4,0-2.6-.3-3.7-.8-1-.6-1.8-1.3-2.4-2.3-.6-1-.8-2.1-.8-3.3s.3-2.4.8-3.3c.6-1,1.3-1.7,2.3-2.3,1-.5,2.1-.8,3.4-.8s2.3.3,3.3.8c1,.5,1.7,1.3,2.3,2.3.5,1,.8,2.1.8,3.4s0,.3,0,.4c0,.2,0,.3,0,.4h-10.4v-1.9h8.9l-1.1.6c0-.7-.1-1.4-.4-1.9-.3-.5-.7-1-1.3-1.3-.5-.3-1.1-.5-1.9-.5s-1.4.2-1.9.5c-.5.3-1,.8-1.3,1.3-.3.5-.4,1.2-.4,1.9v.5c0,.8.2,1.4.5,2s.8,1,1.5,1.3c.6.3,1.3.5,2.2.5s1.3-.1,1.9-.3c.6-.2,1.1-.6,1.5-1l1.6,1.8c-.6.7-1.3,1.2-2.1,1.5-.8.3-1.8.5-2.9.5ZM54.8,47.7v-12.5h2.8v3.4l-.3-1c.4-.8,1-1.5,1.8-1.9.8-.4,1.8-.7,3-.7v2.8c-.1,0-.2,0-.4,0-.1,0-.2,0-.3,0-1.1,0-2,.3-2.7,1-.7.6-1,1.6-1,2.9v6.1h-2.9ZM70.1,47.9c-1.3,0-2.4-.3-3.4-.8-1-.6-1.8-1.3-2.4-2.3-.6-1-.9-2.1-.9-3.3s.3-2.4.9-3.3c.6-1,1.4-1.7,2.4-2.3,1-.5,2.1-.8,3.4-.8s2.4.3,3.4.8c1,.5,1.8,1.3,2.4,2.3.6,1,.9,2.1.9,3.3s-.3,2.3-.9,3.3c-.6,1-1.4,1.7-2.4,2.3-1,.5-2.2.8-3.4.8ZM70.1,45.4c.7,0,1.4-.2,1.9-.5.6-.3,1-.8,1.3-1.4.3-.6.5-1.3.5-2.1s-.2-1.5-.5-2.1c-.3-.6-.8-1-1.3-1.4-.6-.3-1.2-.5-1.9-.5s-1.4.2-1.9.5c-.5.3-1,.8-1.3,1.4-.3.6-.5,1.3-.5,2.1s.2,1.5.5,2.1c.3.6.8,1,1.3,1.4.6.3,1.2.5,1.9.5ZM85.3,47.9c-1.3,0-2.5-.3-3.5-.8-1-.6-1.8-1.3-2.4-2.3-.6-1-.9-2.1-.9-3.3s.3-2.4.9-3.3c.6-1,1.4-1.7,2.4-2.3,1-.5,2.2-.8,3.5-.8s2.3.3,3.2.8c.9.5,1.6,1.2,2.1,2.2l-2.3,1.3c-.4-.6-.8-1-1.4-1.3-.5-.3-1.1-.4-1.7-.4s-1.4.2-1.9.5c-.6.3-1,.8-1.4,1.4-.3.6-.5,1.3-.5,2.1s.2,1.5.5,2.1c.3.6.8,1,1.4,1.3.6.3,1.2.5,1.9.5s1.2-.1,1.7-.4c.5-.3,1-.7,1.4-1.3l2.3,1.3c-.5.9-1.2,1.7-2.1,2.2-.9.5-2,.8-3.2.8ZM100.9,47.7v-2.5l-.2-.5v-4.4c0-.9-.3-1.5-.8-2-.5-.5-1.3-.7-2.3-.7s-1.4.1-2.1.3c-.7.2-1.2.5-1.7.9l-1.1-2.1c.7-.5,1.5-.9,2.4-1.1.9-.3,1.9-.4,2.9-.4,1.8,0,3.2.4,4.2,1.3,1,.9,1.5,2.2,1.5,4v7.3h-2.8ZM97,47.9c-.9,0-1.8-.2-2.5-.5-.7-.3-1.3-.8-1.6-1.3-.4-.6-.6-1.2-.6-1.9s.2-1.3.5-1.9c.3-.6.9-1,1.7-1.3.8-.3,1.8-.5,3-.5h3.6v1.9h-3.4c-1,0-1.7.2-2,.5-.3.3-.5.7-.5,1.2s.2,1,.6,1.3,1,.5,1.8.5,1.4-.2,1.9-.5c.6-.3,1-.8,1.2-1.5l.5,1.8c-.3.7-.8,1.3-1.5,1.7-.7.4-1.6.6-2.7.6ZM107.4,47.7v-12.5h2.8v3.4l-.3-1c.4-.8,1-1.5,1.8-1.9.8-.4,1.8-.7,3-.7v2.8c-.1,0-.2,0-.4,0-.1,0-.2,0-.3,0-1.1,0-2,.3-2.7,1-.7.6-1,1.6-1,2.9v6.1h-2.9ZM122.3,47.9c-1.2,0-2.3-.3-3.3-.8-1-.5-1.7-1.3-2.3-2.3-.5-1-.8-2.1-.8-3.4s.3-2.4.8-3.4c.5-1,1.3-1.7,2.3-2.2,1-.5,2.1-.8,3.3-.8s2,.2,2.8.7c.8.5,1.5,1.1,2,2.1.5.9.7,2.1.7,3.6s-.2,2.7-.7,3.6c-.5.9-1.1,1.6-1.9,2.1s-1.8.7-2.9.7ZM122.7,45.4c.7,0,1.3-.2,1.9-.5.6-.3,1-.8,1.3-1.4.3-.6.5-1.3.5-2.1s-.2-1.5-.5-2.1c-.3-.6-.8-1-1.3-1.4-.5-.3-1.2-.5-1.9-.5s-1.3.2-1.9.5c-.5.3-1,.8-1.3,1.4-.3.6-.5,1.3-.5,2.1s.2,1.5.5,2.1c.3.6.8,1,1.3,1.4.6.3,1.2.5,1.9.5ZM126.5,47.7v-6.3c.1,0-.1-3.3-.1-3.3v-7.8h2.9v17.4h-2.8Z"/>
          <path class="cls-8" d="M307.5,23.6h0c8.6,0,15.6,7,15.6,15.6h0c0,8.6-7,15.6-15.6,15.6h0c-8.6,0-15.6-7-15.6-15.6h0c0-8.6,7-15.6,15.6-15.6Z"/>
          <g class="cls-7">
            <path class="cls-1" d="M311.4,30.7c-.1-.2-.4-.3-.6-.1l-6.6,3.7c-.1,0-.2.3-.2.4l2.2,10.6c0,0,0,.1,0,.2l-.3.3c-.6.6-1,1-1.9,1s-1.5-.5-2.2-1.4c-.9-1.1-2-2.5-4.7-2.5h0c-.4,0-.7.3-.7.7s.3.7.7.7h0c2.1,0,2.9,1,3.7,2,.7.9,1.6,1.9,3.3,1.9s2.3-.7,2.9-1.4l2.4-2.7s5.8-6.4,5.8-6.4c.1-.1.1-.3,0-.5l-3.8-6.5Z"/>
          </g>
          <path class="cls-8" d="M24.6,166.5c-.8,0-1.6-.2-2.3-.5-.7-.3-1.2-.8-1.7-1.4l1.3-1.6c.4.5.7.9,1.1,1.1.4.2.9.4,1.4.4,1.3,0,2-.8,2-2.4v-6.6h-4.5v-2h6.9v8.5c0,1.5-.4,2.6-1.1,3.4-.7.7-1.8,1.1-3.2,1.1ZM36.3,166.4c-1,0-1.9-.2-2.7-.6-.8-.4-1.4-1-1.8-1.8-.4-.8-.7-1.6-.7-2.6s.2-1.8.7-2.6c.4-.8,1.1-1.3,1.8-1.8.8-.4,1.7-.6,2.7-.6s1.9.2,2.7.6c.8.4,1.4,1,1.8,1.8.4.7.7,1.6.7,2.6s-.2,1.8-.7,2.6c-.4.8-1.1,1.3-1.8,1.8-.8.4-1.7.6-2.7.6ZM36.3,164.5c.6,0,1.1-.1,1.5-.4.4-.2.8-.6,1-1.1.3-.5.4-1,.4-1.6s-.1-1.2-.4-1.6c-.2-.5-.6-.8-1-1.1-.4-.2-.9-.4-1.5-.4s-1.1.1-1.5.4c-.4.2-.8.6-1,1.1-.3.4-.4,1-.4,1.6s.1,1.2.4,1.6c.3.5.6.8,1,1.1.4.2.9.4,1.5.4ZM49.2,156.4c.8,0,1.5.2,2.1.5.6.3,1.1.8,1.5,1.4.4.6.5,1.4.5,2.4v5.6h-2.3v-5.3c0-.9-.2-1.5-.6-1.9-.4-.4-1-.6-1.7-.6s-1,.1-1.4.3c-.4.2-.7.5-1,1-.2.4-.3,1-.3,1.6v4.9h-2.3v-13.5h2.3v6.4l-.5-.8c.3-.6.8-1.1,1.5-1.4.7-.3,1.4-.5,2.3-.5ZM61.7,156.4c.8,0,1.5.2,2.1.5.6.3,1.1.8,1.5,1.4.4.6.5,1.4.5,2.4v5.6h-2.3v-5.3c0-.9-.2-1.5-.6-1.9-.4-.4-1-.6-1.7-.6s-1,.1-1.4.3c-.4.2-.7.5-1,1-.2.4-.3,1-.3,1.6v4.9h-2.3v-9.7h2.2v2.6l-.4-.8c.3-.6.8-1.1,1.5-1.4.7-.3,1.4-.5,2.3-.5ZM76.1,163.3v-2.8c-.1,0,6.6-7,6.6-7h2.7l-5.6,5.9-1.3,1.4-2.4,2.4ZM74,166.3v-12.8h2.4v12.8h-2.4ZM82.9,166.3l-4.9-5.8,1.6-1.7,6.1,7.6h-2.8ZM87,166.3v-9.7h2.3v9.7h-2.3ZM88.2,155c-.4,0-.8-.1-1.1-.4-.3-.3-.4-.6-.4-1s.1-.7.4-1c.3-.3.6-.4,1.1-.4s.8.1,1,.4c.3.2.4.6.4.9s-.1.7-.4,1c-.3.3-.6.4-1.1.4ZM96,166.4c-1.1,0-1.9-.3-2.5-.8-.6-.6-.9-1.4-.9-2.5v-8.7h2.3v8.7c0,.5.1.8.3,1.1.2.3.6.4,1,.4s.9-.1,1.3-.4l.6,1.6c-.3.2-.6.4-1,.5-.4.1-.8.2-1.2.2ZM91,158.5v-1.8h6.5v1.8h-6.5ZM104.3,166.4c-1.1,0-2-.2-2.8-.6-.8-.4-1.4-1-1.9-1.8-.4-.8-.7-1.6-.7-2.6s.2-1.8.6-2.6c.4-.8,1-1.3,1.8-1.8.8-.4,1.6-.6,2.6-.6s1.8.2,2.5.6,1.3,1,1.8,1.8c.4.8.6,1.6.6,2.7s0,.2,0,.3c0,.1,0,.2,0,.3h-8.1v-1.5h6.9l-.9.5c0-.6-.1-1.1-.3-1.5-.2-.4-.6-.8-1-1-.4-.2-.9-.4-1.4-.4s-1.1.1-1.5.4c-.4.2-.7.6-1,1-.2.4-.3.9-.3,1.5v.4c0,.6.1,1.1.4,1.6.3.4.6.8,1.1,1s1,.4,1.7.4,1,0,1.5-.3c.4-.2.8-.4,1.2-.8l1.2,1.4c-.4.5-1,.9-1.7,1.2-.7.3-1.4.4-2.3.4Z"/>
          <path class="cls-8" d="M278.7,166.5c-1,0-1.9-.3-2.7-.8-.8-.5-1.4-1.3-1.9-2.2-.5-1-.7-2.2-.7-3.6s.2-2.6.7-3.6c.5-1,1.1-1.7,1.9-2.2.8-.5,1.7-.8,2.7-.8s1.9.3,2.7.8,1.4,1.3,1.9,2.2c.5,1,.7,2.2.7,3.6s-.2,2.6-.7,3.6c-.5,1-1.1,1.7-1.9,2.2s-1.7.8-2.7.8ZM278.7,164.4c.6,0,1.1-.2,1.6-.5.4-.3.8-.8,1-1.5.3-.7.4-1.5.4-2.5s-.1-1.9-.4-2.5c-.2-.7-.6-1.2-1-1.5-.4-.3-1-.5-1.6-.5s-1.1.2-1.5.5c-.4.3-.8.8-1,1.5-.2.7-.4,1.5-.4,2.5s.1,1.9.4,2.5c.3.7.6,1.2,1,1.5.5.3,1,.5,1.5.5ZM287.7,166.3l5.3-11.8.6,1.1h-7.2l1.1-1.1v3.3h-2.2v-4.2h9.9v1.6l-5,11.2h-2.5ZM294.6,168.1l6-17.2h2l-6,17.2h-2ZM302.6,166.3v-1.6l5.1-4.8c.4-.4.7-.8.9-1.1s.3-.6.4-.8c0-.3.1-.5.1-.7,0-.6-.2-1-.6-1.3-.4-.3-1-.5-1.8-.5s-1.2.1-1.7.3c-.5.2-.9.6-1.3,1l-1.7-1.3c.5-.7,1.2-1.2,2-1.6.9-.4,1.8-.6,2.8-.6s1.7.2,2.4.5c.7.3,1.2.7,1.6,1.3.4.5.6,1.2.6,2s0,.8-.2,1.2c-.1.4-.3.8-.6,1.3s-.7,1-1.3,1.5l-4.4,4.1-.5-.9h7.5v2h-9.4ZM317.4,166.5c-.9,0-1.8-.1-2.6-.4-.9-.3-1.6-.6-2.2-1.1l1-1.8c.5.4,1,.7,1.7.9.7.2,1.3.3,2.1.3s1.5-.2,2-.5c.5-.4.7-.8.7-1.4s-.2-1-.7-1.4-1.1-.5-2.1-.5h-1.2v-1.6l3.6-4.3.3.9h-6.9v-2h8.7v1.6l-3.6,4.3-1.2-.7h.7c1.6,0,2.7.4,3.5,1.1.8.7,1.2,1.6,1.2,2.7s-.2,1.4-.5,2-.9,1.1-1.7,1.5c-.7.4-1.7.5-2.8.5Z"/>
        </g>
      </g>
    </g>
  </g>
</svg>