<svg width="28" height="28" viewBox="0 0 28 28" fill="none" xmlns="http://www.w3.org/2000/svg">
<path d="M13.9875 0.384279C6.25937 0.381154 0 6.63741 0 14.3593C0 20.4656 3.91562 25.6562 9.36875 27.5624C10.1031 27.7468 9.99062 27.2249 9.99062 26.8687V24.4468C5.75 24.9437 5.57812 22.1374 5.29375 21.6687C4.71875 20.6874 3.35937 20.4374 3.76562 19.9687C4.73125 19.4718 5.71562 20.0937 6.85625 21.7781C7.68125 22.9999 9.29062 22.7937 10.1062 22.5906C10.2844 21.8562 10.6656 21.1999 11.1906 20.6906C6.79687 19.9031 4.96562 17.2218 4.96562 14.0343C4.96562 12.4874 5.475 11.0655 6.475 9.91867C5.8375 8.02804 6.53437 6.40929 6.62812 6.16866C8.44375 6.00616 10.3312 7.46866 10.4781 7.58429C11.5094 7.30616 12.6875 7.15929 14.0062 7.15929C15.3312 7.15929 16.5125 7.31241 17.5531 7.59366C17.9062 7.32491 19.6562 6.06866 21.3437 6.22179C21.4344 6.46241 22.1156 8.04366 21.5156 9.90929C22.5281 11.0593 23.0437 12.4937 23.0437 14.0437C23.0437 17.2374 21.2 19.9218 16.7937 20.6968C17.1712 21.068 17.4708 21.5106 17.6752 21.9989C17.8797 22.4871 17.9848 23.0112 17.9844 23.5406V27.0562C18.0094 27.3374 17.9844 27.6156 18.4531 27.6156C23.9875 25.7499 27.9719 20.5218 27.9719 14.3624C27.9719 6.63741 21.7094 0.384279 13.9875 0.384279Z" fill="url(#paint0_linear_18569_1631)"/>
<defs>
<linearGradient id="paint0_linear_18569_1631" x1="-1.56249" y1="-0.773052" x2="34.7918" y2="7.4838" gradientUnits="userSpaceOnUse">
<stop stop-color="#176FEB"/>
<stop offset="1" stop-color="#FF80FF"/>
</linearGradient>
</defs>
</svg>
