<?xml version="1.0" encoding="UTF-8"?>
<svg xmlns="http://www.w3.org/2000/svg" version="1.1" width="24" height="24" viewBox="0 0 24 24">
  <defs>
    <style>
      .cls-1 {
        fill: #fff;
      }
    </style>
  </defs>
  <!-- Generator: Adobe Illustrator 28.6.0, SVG Export Plug-In . SVG Version: 1.2.0 Build 709)  -->
  <g>
    <g id="Capa_1">
      <path class="cls-1" d="M12,0c-3.3,0-6.3,1.3-8.5,3.5S0,8.7,0,12s1.3,6.3,3.5,8.5,5.2,3.5,8.5,3.5,6.3-1.3,8.5-3.5,3.5-5.2,3.5-8.5C24,5.4,18.6,0,12,0ZM17.8,10.7l-4.4,4.9-1.9,2.1c-.5.5-1.1,1.1-2.3,1.1s-1.9-.8-2.5-1.5c-.6-.8-1.2-1.5-2.8-1.5h0c-.3,0-.5-.2-.5-.5s.2-.5.5-.5h0c2.1,0,3,1.1,3.6,1.9.6.7.9,1.1,1.7,1.1s1.1-.3,1.5-.7l.2-.2s0,0,0-.1l-1.7-8.2c0-.1,0-.3.1-.3l5.1-2.9c.1,0,.3,0,.4.1l2.9,5c0,.1,0,.2,0,.3Z"/>
    </g>
  </g>
</svg>